<svg width="80" height="80" viewBox="0 0 80 80" fill="none" xmlns="http://www.w3.org/2000/svg">
<path d="M40 75H5V8.33333C5 8.33333 11.6667 5 22.5 5C33.3333 5 40 8.33333 40 8.33333V75ZM40 75V41.6667H40.8333C40.8333 41.6667 46.6667 45 57.5 45C68.3333 45 74.1667 41.6667 74.1667 41.6667H75V75H40ZM5 31.6667C5 31.6667 11.6667 28.3333 22.5 28.3333C33.3333 28.3333 40 31.6667 40 31.6667M13.3333 15V21.6667M13.3333 36.6667V43.3333M61.6667 44.83V32.5C61.6667 31.3949 61.2277 30.3351 60.4463 29.5537C59.6649 28.7723 58.6051 28.3333 57.5 28.3333C56.3949 28.3333 55.3351 28.7723 54.5537 29.5537C53.7723 30.3351 53.3333 31.3949 53.3333 32.5V33.3333" stroke="#FF6201" stroke-width="2"/>
</svg>
