<svg width="74" height="74" viewBox="0 0 74 74" fill="none" xmlns="http://www.w3.org/2000/svg">
<path d="M9.24996 37C23.125 37 37 23.125 37 9.24996C37 23.125 50.875 37 64.75 37C50.875 37 37 50.875 37 64.75C37 50.875 23.125 37 9.24996 37ZM6.16663 60.125C8.73504 60.125 13.875 54.985 13.875 52.4166C13.875 54.985 19.0149 60.125 21.5833 60.125C19.0149 60.125 13.875 65.2649 13.875 67.8333C13.875 65.2649 8.73504 60.125 6.16663 60.125ZM49.3333 15.4166C52.4166 15.4166 58.5833 9.24996 58.5833 6.16663C58.5833 9.24996 64.75 15.4166 67.8333 15.4166C64.75 15.4166 58.5833 21.5833 58.5833 24.6666C58.5833 21.5833 52.4166 15.4166 49.3333 15.4166Z" stroke="#FF6201" stroke-width="2" stroke-linecap="round" stroke-linejoin="round"/>
</svg>
