<svg width="80" height="80" viewBox="0 0 80 80" fill="none" xmlns="http://www.w3.org/2000/svg">
<path d="M13.3333 16.6667C13.3333 14.1867 13.3333 12.9467 13.6333 11.9334C13.9795 10.756 14.6156 9.68444 15.4833 8.81671C16.3511 7.94898 17.4227 7.31288 18.6 6.96669C19.6133 6.66669 20.8533 6.66669 23.3333 6.66669H46.6666C49.1466 6.66669 50.3866 6.66669 51.4 6.96669C52.5773 7.31288 53.6489 7.94898 54.5166 8.81671C55.3844 9.68444 56.0205 10.756 56.3666 11.9334C56.6666 12.9467 56.6666 14.1867 56.6666 16.6667C56.6666 19.1467 56.6666 20.3867 56.3666 21.4C56.0205 22.5773 55.3844 23.6489 54.5166 24.5167C53.6489 25.3844 52.5773 26.0205 51.4 26.3667C50.3866 26.6667 49.1466 26.6667 46.6666 26.6667H23.3333C20.8533 26.6667 19.6133 26.6667 18.6 26.3667C17.4227 26.0205 16.3511 25.3844 15.4833 24.5167C14.6156 23.6489 13.9795 22.5773 13.6333 21.4C13.3333 20.3867 13.3333 19.1467 13.3333 16.6667ZM40 58.3334C40 56.78 40 56.0034 40.2533 55.39C40.5923 54.5749 41.2409 53.9275 42.0566 53.59C42.67 53.3334 43.4466 53.3334 45 53.3334C46.5533 53.3334 47.33 53.3334 47.9433 53.5867C48.7584 53.9257 49.4058 54.5743 49.7433 55.39C50 56.0034 50 56.78 50 58.3334V68.3334C50 69.8867 50 70.6634 49.7466 71.2767C49.4076 72.0918 48.7591 72.7392 47.9433 73.0767C47.33 73.3334 46.5533 73.3334 45 73.3334C43.4466 73.3334 42.67 73.3334 42.0566 73.08C41.2415 72.741 40.5942 72.0924 40.2566 71.2767C40 70.6634 40 69.8867 40 68.3334V58.3334Z" stroke="#FF6201" stroke-width="2" stroke-linecap="round" stroke-linejoin="round"/>
<path d="M57.4967 16.6667C60.3467 16.6667 61.77 16.6667 62.8967 17.1734C66.6567 18.8734 66.6667 22.8734 66.6667 26.68C66.6667 29.87 66.6667 31.4634 66.2333 32.8067C64.8367 37.1267 59.13 39.2267 53.6133 40.79C49.67 41.91 47.6967 42.4667 46.3467 44.2534C45 46.0367 45 48.13 45 52.32V53.3334" stroke="#FF6201" stroke-width="2" stroke-linecap="round" stroke-linejoin="round"/>
</svg>
