<svg width="70" height="70" viewBox="0 0 70 70" fill="none" xmlns="http://www.w3.org/2000/svg">
<path d="M17.5 58.3333V64.1666M52.5 58.3333V64.1666M35 58.3333V5.83331M26.25 29.1666V32.0833M43.75 29.1666V32.0833M8.75 40.8333V23.3333C8.75 15.085 8.75 10.9579 11.4625 8.39706C14.175 5.83623 18.5442 5.83331 27.2796 5.83331H42.7204C51.4558 5.83331 55.8221 5.83331 58.5375 8.39706C61.25 10.9579 61.25 15.085 61.25 23.3333V40.8333C61.25 49.0817 61.25 53.2087 58.5375 55.7696C55.825 58.3304 51.4558 58.3333 42.7204 58.3333H27.2796C18.5442 58.3333 14.1779 58.3333 11.4625 55.7696C8.75 53.2087 8.75 49.0817 8.75 40.8333Z" stroke="#FF6201" stroke-width="2" stroke-linecap="round" stroke-linejoin="round"/>
</svg>
