<svg width="80" height="80" viewBox="0 0 80 80" fill="none" xmlns="http://www.w3.org/2000/svg">
<path d="M76.25 40C76.25 40.3315 76.1183 40.6495 75.8839 40.8839C75.6495 41.1183 75.3315 41.25 75 41.25H68.6938C68.3778 44.6646 66.7989 47.8385 64.2662 50.1504C61.7335 52.4623 58.4292 53.7459 55 53.75H41.25V63.75H50C52.3206 63.75 54.5462 64.6719 56.1872 66.3128C57.8281 67.9538 58.75 70.1794 58.75 72.5C58.75 72.8315 58.6183 73.1495 58.3839 73.3839C58.1495 73.6183 57.8315 73.75 57.5 73.75C57.1685 73.75 56.8505 73.6183 56.6161 73.3839C56.3817 73.1495 56.25 72.8315 56.25 72.5C56.25 70.8424 55.5915 69.2527 54.4194 68.0806C53.2473 66.9085 51.6576 66.25 50 66.25H41.25V72.5C41.25 72.8315 41.1183 73.1495 40.8839 73.3839C40.6495 73.6183 40.3315 73.75 40 73.75C39.6685 73.75 39.3505 73.6183 39.1161 73.3839C38.8817 73.1495 38.75 72.8315 38.75 72.5V66.25H30C28.3424 66.25 26.7527 66.9085 25.5806 68.0806C24.4085 69.2527 23.75 70.8424 23.75 72.5C23.75 72.8315 23.6183 73.1495 23.3839 73.3839C23.1495 73.6183 22.8315 73.75 22.5 73.75C22.1685 73.75 21.8505 73.6183 21.6161 73.3839C21.3817 73.1495 21.25 72.8315 21.25 72.5C21.25 70.1794 22.1719 67.9538 23.8128 66.3128C25.4538 64.6719 27.6794 63.75 30 63.75H38.75V53.75H25C21.5708 53.7459 18.2665 52.4623 15.7338 50.1504C13.2011 47.8385 11.6222 44.6646 11.3063 41.25H5C4.66848 41.25 4.35054 41.1183 4.11612 40.8839C3.8817 40.6495 3.75 40.3315 3.75 40C3.75 39.6685 3.8817 39.3505 4.11612 39.1161C4.35054 38.8817 4.66848 38.75 5 38.75H12.5C12.8315 38.75 13.1495 38.8817 13.3839 39.1161C13.6183 39.3505 13.75 39.6685 13.75 40C13.75 42.9837 14.9353 45.8452 17.045 47.9549C19.1548 50.0647 22.0163 51.25 25 51.25H55C57.9837 51.25 60.8452 50.0647 62.9549 47.9549C65.0647 45.8452 66.25 42.9837 66.25 40C66.25 39.6685 66.3817 39.3505 66.6161 39.1161C66.8505 38.8817 67.1685 38.75 67.5 38.75H75C75.3315 38.75 75.6495 38.8817 75.8839 39.1161C76.1183 39.3505 76.25 39.6685 76.25 40ZM22.1688 42.4562C21.8164 42.0505 21.5553 41.5738 21.4033 41.0583C21.2512 40.5429 21.2118 40.0008 21.2875 39.4688L25.575 9.46875C25.7066 8.57689 26.1534 7.76174 26.8346 7.17119C27.5157 6.58063 28.386 6.2538 29.2875 6.25H50.7125C51.614 6.2538 52.4843 6.58063 53.1654 7.17119C53.8466 7.76174 54.2934 8.57689 54.425 9.46875L58.7125 39.4688C58.7886 40.0007 58.7495 40.5428 58.5979 41.0583C58.4462 41.5739 58.1855 42.0508 57.8335 42.4568C57.4814 42.8628 57.0462 43.1884 56.5574 43.4115C56.0685 43.6346 55.5374 43.75 55 43.75H25C24.463 43.7497 23.9323 43.634 23.4438 43.4108C22.9553 43.1876 22.5205 42.8621 22.1688 42.4562ZM24.0438 40.8187C24.1614 40.9568 24.3082 41.067 24.4735 41.1416C24.6389 41.2162 24.8187 41.2532 25 41.25H55C55.1782 41.2504 55.3544 41.2121 55.5162 41.1376C55.6781 41.0631 55.8219 40.9543 55.9375 40.8187C56.0551 40.6834 56.1422 40.5243 56.1929 40.3523C56.2436 40.1803 56.2567 39.9994 56.2313 39.8219L51.9437 9.82188C51.9006 9.5221 51.7501 9.24818 51.5202 9.05103C51.2903 8.85388 50.9966 8.74691 50.6937 8.75H29.2875C28.9847 8.74691 28.691 8.85388 28.4611 9.05103C28.2312 9.24818 28.0806 9.5221 28.0375 9.82188L23.75 39.8219C23.7271 40.0007 23.7432 40.1824 23.7971 40.3545C23.8511 40.5266 23.9416 40.685 24.0625 40.8187H24.0438Z" fill="#FF6201"/>
</svg>
