<svg width="155" height="164" viewBox="0 0 155 164" fill="none" xmlns="http://www.w3.org/2000/svg">
<rect width="155" height="164" fill="#DEDEDE"/>
<path d="M41.2 48.608C48.304 48.608 54.512 50.016 59.824 52.832C65.136 55.648 69.232 59.616 72.112 64.736C75.056 69.792 76.528 75.648 76.528 82.304C76.528 88.896 75.056 94.752 72.112 99.872C69.232 104.992 65.104 108.96 59.728 111.776C54.416 114.592 48.24 116 41.2 116H15.952V48.608H41.2ZM40.144 101.792C46.352 101.792 51.184 100.096 54.64 96.704C58.096 93.312 59.824 88.512 59.824 82.304C59.824 76.096 58.096 71.264 54.64 67.808C51.184 64.352 46.352 62.624 40.144 62.624H32.368V101.792H40.144Z" fill="black"/>
<path d="M106.918 48.608V116H90.502V48.608H106.918ZM131.294 116.768C128.414 116.768 126.046 115.936 124.19 114.272C122.398 112.544 121.502 110.432 121.502 107.936C121.502 105.376 122.398 103.232 124.19 101.504C126.046 99.776 128.414 98.912 131.294 98.912C134.11 98.912 136.414 99.776 138.207 101.504C140.062 103.232 140.99 105.376 140.99 107.936C140.99 110.432 140.062 112.544 138.207 114.272C136.414 115.936 134.11 116.768 131.294 116.768Z" fill="#FF6201"/>
</svg>
